{"title":"MYLENE FARMER---NRJ Music Awards-2013---Je te dis tout( 1080p)","uid":8072874,"size":325385992,"categoryP":"video","categoryS":"music_videos","magnet":"?xt=urn:btih:24bce292fa8a22657f4f932b982076c1db8138d3&amp;dn=MYLENE+FARMER---NRJ+Music+Awards-2013---Je+te+dis+tout%28+1080p%29&amp;tr=udp%3A%2F%2Ftracker.openbittorrent.com%3A80&amp;tr=udp%3A%2F%2Fopen.demonii.com%3A1337&amp;tr=udp%3A%2F%2Ftracker.coppersurfer.tk%3A6969&amp;tr=udp%3A%2F%2Fexodus.desync.com%3A6969","seeders":1,"leechers":0,"uploader":null,"files":-1,"time":1359313190,"description":"Format                                   : AVI\nFormat/Info                              : Audio Video Interleave\nFile size                                : 310 MiB\nDuration                                 : 4mn 33s\nOverall bit rate                         : 9 521 Kbps\nWriting library                          : TMPGEnc 4.0 XPress Version. 4.7.7.307\n\nVideo\nID                                       : 0\nFormat                                   : MPEG-4 Visual\nFormat profile                           : Advanced Simple@L5\nFormat settings, BVOP                    : 2\nFormat settings, QPel                    : No\nFormat settings, GMC                     : No warppoints\nFormat settings, Matrix                  : Default (H.263)\nMuxing mode                              : Packed bitstream\nCodec ID                                 : XVID\nCodec ID/Hint                            : XviD\nDuration                                 : 4mn 33s\nBit rate                                 : 7 972 Kbps\nWidth                                    : 1 920 pixels\nHeight                                   : 1 080 pixels\nDisplay aspect ratio                     : 16:9\nFrame rate                               : 25.000 fps\nColor space                              : YUV\nChroma subsampling                       : 4:2:0\nBit depth                                : 8 bits\nScan type                                : Progressive\nCompression mode                         : Lossy\nBits/(Pixel*Frame)                       : 0.154\nStream size                              : 260 MiB (84%)\nWriting library                          : XviD 64\n\nAudio\nID                                       : 1\nFormat                                   : PCM\nFormat settings, Endianness              : Little\nFormat settings, Sign                    : Signed\nCodec ID                                 : 1\nDuration                                 : 4mn 33s\nBit rate mode                            : Constant\nBit rate                                 : 1 536 Kbps\nChannel(s)                               : 2 channels\nSampling rate                            : 48.0 KHz\nBit depth                                : 16 bits\nStream size                              : 50.1 MiB (16%)\nInterleave, duration                     : 40 ms (1.00 video frame)\nInterleave, preload duration             : 479 ms\n\n","torrent":{"xt":"urn:btih:24bce292fa8a22657f4f932b982076c1db8138d3","amp;dn":"MYLENE+FARMER---NRJ+Music+Awards-2013---Je+te+dis+tout%28+1080p%29","amp;tr":["udp%3A%2F%2Ftracker.openbittorrent.com%3A80","udp%3A%2F%2Fopen.demonii.com%3A1337","udp%3A%2F%2Ftracker.coppersurfer.tk%3A6969","udp%3A%2F%2Fexodus.desync.com%3A6969"],"infoHash":"24bce292fa8a22657f4f932b982076c1db8138d3","infoHashBuffer":{"type":"Buffer","data":[36,188,226,146,250,138,34,101,127,79,147,43,152,32,118,193,219,129,56,211]},"announce":[],"urlList":[]}}